<svg width="242" height="321" xmlns="http://www.w3.org/2000/svg" xmlns:xlink="http://www.w3.org/1999/xlink"><defs><path id="a" d="M0 0h1600v1021H0z"/><path d="M121.465 261.463L0 187.742v-180C0 3.167 3.167 0 7.742 0h226.451c4.576 0 7.742 3.167 7.742 7.742v180l-120.47 73.72z" id="c"/><path d="M234.194 0H7.742C3.166 0 0 3.174 0 7.761v180.443l121.465 73.902 120.47-73.902V7.76c0-4.587-3.166-7.761-7.741-7.761zm0 .97c4.051 0 6.774 2.73 6.774 6.791v179.9L121.463 260.97.968 187.658V7.76c0-4.062 2.722-6.79 6.774-6.79h226.452z" id="e"/><path d="M65.371 26.285c-3.112 0-4.68-2.912-4.68-5.728s1.701-5.604 4.531-5.604c1.325 0 3 .696 3.656 1.675l3.295-3.438c-1.595-1.76-4.136-2.81-6.951-2.81-5.73 0-9.887 4.306-9.887 10.239 0 6.029 4.11 10.239 9.998 10.239 2.802 0 5.39-.859 6.925-2.588l-3.204-3.6c-.74.943-2.291 1.615-3.683 1.615zm-27.717-4.73c0 2.278-1.419 4.73-4.06 4.73-2.038 0-3.126-1.522-3.126-4.652V10.926h-5.111v12.032c0 4.003 1.907 7.9 7.008 7.9 2.405 0 4.42-1.983 5.435-3.447h.078v2.901h4.887V10.926h-5.111v10.628zm9.293 8.757h5.11V10.926h-5.11v19.386zm-30.81-16.925h-.114c-.722-.837-2.679-3.007-5.855-3.007-5.211 0-9.227 4.273-9.227 10.161 0 5.978 3.706 10.317 8.982 10.317 2.395 0 4.646-1.33 5.951-2.876h.075V39.86h5.112V10.926h-4.925v2.461zm-4.963 12.898c-3.161 0-4.958-2.89-4.958-5.744 0-2.729 1.65-5.666 4.958-5.666 3.042 0 4.924 2.981 4.924 5.744 0 2.785-1.841 5.666-4.924 5.666zM127.596 10.38c-5.816 0-10.037 4.273-10.037 10.161 0 6.093 4.316 10.369 10.037 10.369 5.721 0 10.036-4.318 10.036-10.369 0-5.888-4.22-10.161-10.036-10.161zm0 15.905c-3.333 0-4.851-2.977-4.851-5.744 0-2.729 1.518-5.666 4.85-5.666 3.334 0 4.852 2.937 4.852 5.666 0 2.767-1.518 5.744-4.851 5.744zm54.238-15.36h-6.591l-6.6 8.045h-.114V.242h-5.111v30.07h5.111v-9.561h.114l6.846 9.561h6.727l-7.958-10.594 7.576-8.792zm-31.778-.545c-5.816 0-10.036 4.273-10.036 10.161 0 6.093 4.314 10.369 10.036 10.369 5.722 0 10.036-4.318 10.036-10.369 0-5.888-4.22-10.161-10.036-10.161zm0 15.905c-3.334 0-4.852-2.977-4.852-5.744 0-2.729 1.518-5.666 4.852-5.666 3.333 0 4.85 2.937 4.85 5.666 0 2.767-1.517 5.744-4.85 5.744zm-56.83-15.36h-6.592l-6.599 8.045h-.113V.242H74.81v30.07h5.112v-9.561h.114l6.846 9.561h6.726L85.65 19.718l7.576-8.792zm12.815-.545c-2.338 0-4.06 1.07-5.685 2.666h-.096V.242h-5.11v30.07h4.887v-2.74h.076c1.153 1.98 3.442 3.286 5.817 3.286 5.276 0 9.276-4.34 9.276-10.317 0-5.888-3.953-10.161-9.165-10.161zm-1.004 15.905c-3.083 0-4.926-2.881-4.926-5.666 0-2.763 1.883-5.744 4.926-5.744 3.307 0 4.952 2.937 4.952 5.666 0 2.854-1.791 5.744-4.952 5.744zm86.46-7.905c-2.63-.658-3.558-1.012-3.558-2.127 0-1.539 1.861-1.876 2.704-1.876 1.585 0 3.378.992 4.051 1.933l3.014-3.028c-1.394-1.833-4.134-2.902-7.028-2.902-3.7 0-7.583 1.948-7.583 6.302 0 3.737 2.797 4.865 5.534 5.553 2.884.703 3.914 1.217 3.914 2.435 0 1.794-1.943 2.087-2.613 2.087-1.671 0-3.61-1.003-4.655-2.303l-3.102 3.295c1.695 1.969 4.596 3.153 7.571 3.153 4.997 0 7.962-2.495 7.962-6.61 0-3.94-3.63-5.264-6.211-5.912z" id="g"/><path d="M3.19.334C1.884.334.827 1.305.827 2.517.827 3.73 1.884 4.68 3.19 4.68s2.363-.951 2.363-2.163C5.553 1.305 4.496.334 3.19.334zm0 4.029c-1.099 0-1.99-.837-1.99-1.846 0-1.02.891-1.846 1.99-1.846s1.99.826 1.99 1.846c0 1.01-.891 1.846-1.99 1.846zm.996-2.366c0-.529-.487-.72-.986-.72h-.933v2.46h.478V2.71h.342l.621 1.028h.58l-.715-1.076c.374-.077.613-.307.613-.664zm-1.441.357V1.65h.434c.25 0 .53.068.53.337 0 .298-.311.366-.58.366h-.384z" id="i"/><path d="M.375 22.488C.375 10.32 10.015.456 21.905.456c11.892 0 21.53 9.864 21.53 22.032S33.798 44.52 21.906 44.52c-11.89 0-21.53-9.864-21.53-22.032z" id="k"/><path d="M.552 15.227c0 4.869 3.787 8.815 8.458 8.815h1.208v-3.274H9.01c-2.93 0-5.316-2.486-5.316-5.54 0-3.056 2.385-5.542 5.316-5.542h2.903v17.126c0 1.808 1.407 3.274 3.142 3.274V6.412H9.01c-4.67 0-8.458 3.947-8.458 8.815zm22.961-8.814h-1.208v3.274h1.208c2.932 0 5.316 2.487 5.316 5.541 0 3.056-2.384 5.541-5.316 5.541H20.61V3.643c0-1.809-1.407-3.274-3.142-3.274v23.674h6.045c4.67 0 8.458-3.946 8.458-8.815 0-4.868-3.787-8.815-8.458-8.815z" id="m"/><path d="M8.063 3.465c-1.034 0-1.866.634-2.172 1.342h-.03V3.672h-1.66v7.076h1.748V6.856c0-.943.525-1.916 1.634-1.916 1.122 0 1.312 1.047 1.312 1.887v3.921h1.75V6.325c0-1.444-.758-2.86-2.582-2.86zM.657 10.748h1.75V3.671H.656v7.077zm31.82-8.002c.584 0 1.057-.48 1.057-1.07 0-.59-.473-1.07-1.057-1.07s-1.057.48-1.057 1.07c0 .59.473 1.07 1.057 1.07zm-18.104 0c.584 0 1.058-.48 1.058-1.07 0-.59-.474-1.07-1.058-1.07-.584 0-1.057.48-1.057 1.07 0 .59.473 1.07 1.057 1.07zm-2.837 2.489h1.962v5.513h1.75V5.235h1.962V3.668h-5.674v1.567zm11.587 2.33c0 .942-.526 1.916-1.632 1.916-1.123 0-1.313-1.047-1.313-1.887V3.672h-1.75v4.423c0 1.445.758 2.86 2.581 2.86 1.035 0 1.867-.634 2.173-1.341h.03v1.134h1.661V3.672h-1.75v3.893zm6.517-3.897v1.567h1.963v5.513h1.749V5.235h1.962V3.668H29.64zm-2.975 7.08h1.749V3.671h-1.75v7.077z" id="o"/><path d="M105.133 31.498c.154 0 .27.035.348.104.076.07.115.182.115.336v1.068c0 .155-.039.267-.115.336-.077.07-.194.113-.348.128-.836.047-1.578.247-2.227.603-.65.356-1.106.65-1.37.882v7.772c0 .155-.03.27-.092.347-.062.078-.17.116-.325.116h-1.346c-.154 0-.266-.038-.336-.116-.07-.077-.104-.192-.104-.347V32.124c0-.155.035-.266.104-.336.07-.07.182-.104.336-.104h1.23c.155 0 .263.035.324.104.062.07.101.181.117.336l.07.998c.309-.31.78-.657 1.415-1.044.634-.386 1.368-.58 2.204-.58zM93.97 40.012v-5.15c0-.495-.19-.878-.57-1.149-.378-.27-1-.405-1.866-.405-.866 0-1.49.135-1.868.405-.38.271-.568.654-.568 1.149v5.15c0 .495.189.878.568 1.149.378.27 1.002.405 1.868.405.866 0 1.488-.135 1.867-.405.379-.271.569-.654.569-1.149zm-7.076.186v-5.522c0-.944.367-1.709 1.102-2.296.734-.588 1.914-.882 3.538-.882 1.624 0 2.802.294 3.537.882.735.587 1.102 1.352 1.102 2.296v5.522c0 .944-.367 1.709-1.102 2.296-.735.588-1.913.882-3.537.882-1.624 0-2.804-.294-3.538-.882-.735-.587-1.102-1.352-1.102-2.296zm-4.853-5.29v-.556c0-.418-.188-.728-.568-.928-.378-.202-.924-.302-1.635-.302-.712 0-1.25.1-1.613.302-.363.2-.544.51-.544.928v.394c0 .294.11.53.335.707.225.178.438.298.638.36l3.48 1.206c.635.217 1.141.515 1.52.893.379.38.569.84.569 1.381v1.299c0 .711-.345 1.354-1.033 1.926-.688.572-1.814.858-3.376.858-1.561 0-2.683-.286-3.363-.858-.68-.572-1.021-1.215-1.021-1.926v-.58c0-.14.03-.244.093-.313.061-.07.162-.105.301-.105h1.23c.154 0 .259.035.313.105.054.07.081.174.081.313v.487c0 .418.21.728.626.928.419.201.998.302 1.74.302.727 0 1.303-.1 1.729-.302.425-.2.638-.51.638-.928v-.626a.815.815 0 0 0-.325-.673c-.216-.17-.518-.317-.904-.441l-3.48-1.206c-.434-.155-.843-.441-1.23-.858a2.115 2.115 0 0 1-.58-1.485v-.858c0-.712.31-1.366.928-1.96.618-.596 1.709-.894 3.27-.894 1.547 0 2.634.298 3.26.893.626.595.94 1.249.94 1.96v.557c0 .155-.031.264-.093.325-.062.062-.17.092-.324.092h-1.207c-.14 0-.24-.03-.302-.092-.062-.061-.093-.17-.093-.325zm-9.422-2.76v10.579c0 .155-.03.27-.093.347-.062.078-.17.116-.324.116h-1.346c-.155 0-.266-.038-.336-.116-.07-.077-.104-.192-.104-.347v-10.58c0-.155.035-.27.104-.347.07-.078.181-.116.336-.116h1.346c.154 0 .262.038.324.116.062.077.093.192.093.347zm0-4.71v2.088c0 .155-.03.267-.093.336-.062.07-.17.105-.324.105h-1.346c-.155 0-.266-.035-.336-.105-.07-.07-.104-.181-.104-.336v-2.088c0-.155.035-.27.104-.348.07-.078.181-.116.336-.116h1.346c.154 0 .262.038.324.116.062.077.093.193.093.348zM64.103 43.19H62.55c-.155 0-.26-.03-.314-.093a.905.905 0 0 1-.15-.324l-3.573-10.626c-.047-.155-.031-.27.046-.347.077-.078.194-.116.348-.116h1.415c.155 0 .267.042.337.128.07.085.128.196.174.335l2.204 6.658c.108.326.19.67.244 1.033l.104.707c.016-.154.062-.413.139-.777.077-.363.162-.676.255-.94l2.32-6.68c.046-.14.1-.251.162-.336.062-.086.17-.128.325-.128h1.276c.155 0 .27.038.348.116.078.077.093.192.047.347l-3.712 10.626a.905.905 0 0 1-.151.324c-.055.062-.15.093-.29.093zm-10.026-.463l-.046-.696c-.34.247-.827.533-1.461.858-.634.324-1.43.487-2.39.487-1.114 0-1.937-.29-2.47-.87-.535-.58-.8-1.341-.8-2.285v-5.568c0-.944.265-1.705.8-2.285.533-.58 1.356-.87 2.47-.87.928 0 1.71.159 2.343.475.634.318 1.122.6 1.462.847v-5.382c0-.155.03-.27.092-.348.062-.078.17-.116.326-.116h1.345c.155 0 .267.038.337.116.07.077.104.193.104.348v15.289c0 .155-.035.27-.104.347-.07.078-.182.116-.337.116h-1.23c-.154 0-.263-.038-.324-.116a.656.656 0 0 1-.117-.347zM49.113 35v4.872c0 .402.12.754.36 1.056.239.302.692.452 1.357.452.726 0 1.372-.15 1.937-.452.564-.302.97-.545 1.218-.731v-5.499c-.247-.201-.654-.452-1.218-.754-.565-.302-1.21-.452-1.937-.452-.665 0-1.118.15-1.357.452-.24.302-.36.654-.36 1.056zm-10.768-7.586h1.439c.154 0 .274.035.359.105.085.07.15.18.197.335l4.501 14.895c.047.14.039.247-.023.324-.062.078-.17.116-.325.116h-1.461c-.155 0-.267-.038-.337-.116a.91.91 0 0 1-.174-.324l-1.09-3.596h-4.896L35.47 42.75a.91.91 0 0 1-.174.324c-.07.078-.182.116-.337.116h-1.345c-.155 0-.26-.038-.314-.116-.054-.077-.058-.185-.012-.324l4.501-14.895a.668.668 0 0 1 .198-.335.551.551 0 0 1 .359-.105zm2.598 9.93l-1.298-4.223c-.093-.294-.21-.82-.349-1.578a22.403 22.403 0 0 1-.278-1.856 38.055 38.055 0 0 1-.302 1.856 15.01 15.01 0 0 1-.348 1.531l-1.322 4.27h3.897zM28.97 40.011v-5.15c0-.495-.19-.878-.568-1.149-.38-.27-1.001-.405-1.867-.405-.867 0-1.489.135-1.868.405-.38.271-.568.654-.568 1.149v5.15c0 .495.188.878.568 1.149.38.27 1.001.405 1.868.405.866 0 1.488-.135 1.867-.405.379-.271.568-.654.568-1.149zm-7.076.186v-5.522c0-.944.368-1.709 1.102-2.296.735-.588 1.915-.882 3.539-.882 1.623 0 2.803.294 3.538.882.734.587 1.1 1.352 1.1 2.296v5.522c0 .944-.366 1.709-1.1 2.296-.735.588-1.915.882-3.538.882-1.624 0-2.804-.294-3.539-.882-.734-.587-1.102-1.352-1.102-2.296zm-2.207-8.7c.155 0 .27.035.348.104.078.07.116.182.116.336v1.068c0 .155-.038.267-.116.336-.077.07-.193.113-.348.128-.835.047-1.578.247-2.227.603-.65.356-1.106.65-1.368.882v7.772c0 .155-.031.27-.093.347-.062.078-.17.116-.325.116h-1.346c-.154 0-.267-.038-.336-.116-.07-.077-.105-.192-.105-.347V32.124c0-.155.035-.266.105-.336.07-.07.182-.104.336-.104h1.23c.154 0 .263.035.325.104.062.07.1.181.116.336l.07.998c.308-.31.78-.657 1.414-1.044.634-.386 1.369-.58 2.204-.58zm-13.83-2.157H2.98v6.054h2.876c1.036 0 1.798-.18 2.286-.545.486-.364.73-.854.73-1.473V31.36c0-.619-.244-1.11-.73-1.473-.488-.364-1.25-.545-2.286-.545zm0 7.98H2.98v5.406c0 .155-.031.27-.093.347-.062.078-.17.116-.325.116H1.147c-.155 0-.263-.038-.325-.116-.062-.077-.093-.192-.093-.347V27.879c0-.155.03-.27.093-.348.062-.077.17-.116.325-.116h4.709c1.98 0 3.352.36 4.119 1.08.765.718 1.147 1.55 1.147 2.493v2.76c0 .944-.382 1.775-1.147 2.494-.767.72-2.14 1.079-4.12 1.079zm84.863-21.109l-.046-.695c-.34.247-.828.534-1.462.858-.634.325-1.43.488-2.39.488-1.113 0-1.936-.29-2.47-.87-.534-.58-.8-1.342-.8-2.286V8.14c0-.944.266-1.706.8-2.285.534-.58 1.357-.87 2.47-.87.929 0 1.71.158 2.344.475.634.317 1.121.599 1.461.847V.925c0-.155.031-.27.093-.348.062-.078.17-.116.325-.116h1.345c.155 0 .267.038.337.116.07.077.105.193.105.348v15.287c0 .155-.035.271-.105.349-.07.077-.182.116-.337.116H91.16c-.155 0-.263-.039-.325-.116a.66.66 0 0 1-.116-.349zm-4.964-7.724v4.872c0 .401.12.753.36 1.055.239.301.691.452 1.356.452.727 0 1.373-.15 1.938-.452.564-.302.97-.545 1.217-.731V8.186c-.247-.201-.653-.453-1.217-.754-.565-.302-1.21-.453-1.938-.453-.665 0-1.117.151-1.356.453-.24.301-.36.653-.36 1.056zm-11.789-.186v1.461h4.64v-1.46c0-.465-.17-.84-.51-1.126-.34-.287-.944-.429-1.81-.429-.881 0-1.488.142-1.821.429-.333.286-.499.66-.499 1.125zm6.705-.14v2.831c0 .139-.031.243-.093.313s-.163.105-.302.105h-6.31v2.134c0 .48.154.859.464 1.137.31.278.928.418 1.856.418s1.547-.14 1.856-.418c.309-.278.464-.658.464-1.137v-.255c0-.155.035-.267.104-.337.07-.07.182-.104.337-.104h1.183c.155 0 .267.034.336.104.07.07.105.182.105.337v.394c0 .943-.33 1.709-.986 2.297-.657.588-1.806.882-3.445.882-1.64 0-2.788-.294-3.445-.882-.658-.588-.987-1.354-.987-2.297V8.163c0-.944.337-1.71 1.01-2.297.672-.588 1.829-.881 3.468-.881 1.624 0 2.761.293 3.41.881.65.588.975 1.353.975 2.297zM68.626 5.658v10.555c0 .155-.03.271-.091.349-.062.077-.17.116-.326.116h-1.346c-.154 0-.266-.039-.336-.116-.07-.078-.104-.194-.104-.349V7.026H61.69v9.186c0 .155-.031.271-.093.349-.062.077-.17.116-.325.116h-1.369c-.155 0-.263-.039-.325-.116-.062-.078-.093-.194-.093-.349V7.026h-1.368c-.155 0-.267-.039-.337-.116-.07-.077-.105-.193-.105-.348V5.75c0-.155.035-.263.105-.325.07-.062.182-.1.337-.116l1.206-.093h.162V3.639c0-.944.36-1.71 1.08-2.297.718-.587 1.89-.881 3.514-.881h3.781c.155 0 .267.034.337.104.07.07.104.182.104.337v.973c0 .155-.035.271-.104.349-.07.077-.182.116-.337.116H64.08c-.866 0-1.48.135-1.845.405-.363.271-.544.647-.544 1.126v1.345h6.495c.155 0 .267.035.337.105.069.07.103.181.103.336zm-13.249-.023v10.578c0 .155-.03.271-.093.349-.062.077-.17.116-.325.116h-1.345c-.155 0-.267-.039-.337-.116-.07-.078-.104-.194-.104-.349V5.634c0-.155.034-.27.104-.348.07-.078.182-.115.337-.115h1.345c.155 0 .263.037.325.115.062.077.093.193.093.348zm0-4.709v2.087c0 .155-.03.268-.093.337-.062.07-.17.105-.325.105h-1.345c-.155 0-.267-.035-.337-.105-.07-.07-.104-.182-.104-.337V.925c0-.155.034-.27.104-.348.07-.078.182-.116.337-.116h1.345c.155 0 .263.038.325.116.062.077.093.193.093.348zm-7.636 4.291h2.389c.155 0 .267.031.337.093s.104.17.104.325v.928c0 .155-.035.271-.104.348-.07.077-.182.116-.337.116h-2.39v6.24c0 .48.175.855.523 1.126.348.27.954.406 1.82.406h.442c.155 0 .267.038.337.116.068.077.103.193.103.348v.974c0 .155-.035.267-.103.336-.07.07-.182.105-.337.105h-.766c-1.624 0-2.737-.275-3.34-.824-.604-.548-.905-1.334-.905-2.354V7.026h-1.277c-.153 0-.266-.039-.335-.116-.07-.077-.105-.193-.105-.348V5.75c0-.155.035-.263.105-.325.07-.062.182-.1.335-.116l1.138-.093h.139V2.873c0-.155.035-.27.104-.347.07-.078.181-.116.336-.116h1.37c.154 0 .262.038.324.116.062.077.093.192.093.347v2.343zm-5.456-.231c.155 0 .271.035.349.104.077.07.116.181.116.336v1.067c0 .155-.039.268-.116.337a.606.606 0 0 1-.349.127c-.835.046-1.577.248-2.226.604-.65.355-1.106.65-1.37.882v7.77c0 .155-.03.271-.092.349-.062.077-.17.116-.325.116h-1.345c-.155 0-.267-.039-.337-.116-.07-.078-.104-.194-.104-.349V5.611c0-.155.035-.267.104-.337.07-.07.182-.103.337-.103h1.23c.154 0 .262.033.324.103.062.07.1.182.116.337l.07.998c.309-.31.781-.657 1.415-1.045.634-.386 1.368-.58 2.203-.58zM26.74 8.302v1.461h4.64v-1.46c0-.465-.17-.84-.51-1.126-.34-.287-.944-.429-1.81-.429-.882 0-1.489.142-1.82.429-.334.286-.5.66-.5 1.125zm6.704-.14v2.831c0 .139-.03.243-.093.313-.062.07-.161.105-.3.105h-6.311v2.134c0 .48.155.859.464 1.137.309.278.928.418 1.855.418.928 0 1.548-.14 1.857-.418.31-.278.464-.658.464-1.137v-.255c0-.155.035-.267.105-.337.068-.07.18-.104.335-.104h1.184c.155 0 .266.034.336.104.07.07.104.182.104.337v.394c0 .943-.328 1.709-.986 2.297-.657.588-1.805.882-3.445.882s-2.787-.294-3.444-.882c-.658-.588-.986-1.354-.986-2.297V8.163c0-.944.335-1.71 1.009-2.297.673-.588 1.828-.881 3.467-.881 1.624 0 2.761.293 3.41.881.651.588.975 1.353.975 2.297zm-11.51 3.667v1.46c0 .944-.36 1.776-1.078 2.495-.72.719-2.07 1.079-4.05 1.079-1.978 0-3.328-.36-4.047-1.08-.72-.718-1.078-1.55-1.078-2.493V4.289c0-.944.359-1.775 1.078-2.494.719-.72 2.069-1.079 4.048-1.079 1.98 0 3.33.36 4.049 1.08.719.718 1.078 1.55 1.078 2.493v1.136c0 .155-.031.271-.092.348-.062.078-.17.117-.325.117H20.17c-.154 0-.266-.04-.336-.117-.07-.077-.105-.193-.105-.348V4.66c0-.619-.224-1.11-.672-1.473-.45-.364-1.192-.545-2.228-.545-1.035 0-1.774.18-2.215.545-.44.363-.661.854-.661 1.473v8.258c0 .62.22 1.11.66 1.474.442.363 1.18.545 2.216.545 1.036 0 1.779-.182 2.228-.545.448-.364.672-.854.672-1.474v-1.09c0-.154.035-.266.105-.336.07-.07.182-.105.336-.105h1.346c.155 0 .263.035.325.105.06.07.092.182.092.337z" id="q"/><path d="M122.58 0v40.554c-.04 6.159-3.18 11.946-8.189 15.538l-.029.022-.03.02-99.944 60.846-1.073.653-.364-1.202L1.014 76.99.8 76.28l.63-.395L121.093.958 122.58 0z" id="s"/><path id="u" d="M14.226 1.469L13.69.886l-.666.423L1.401 8.695l-.474.3.028.568L2.98 51.297l.072 1.502 1.316-.69 36.98-19.393.32-.189z"/><path d="M161.258 98.733l-39.855-23.996L1.478.95 0 .038l.13 40.25A19.291 19.291 0 0 0 8.163 55.93l.032.024.035.02 113.45 67.92.503.3.5-.305 38.58-23.495 1.37-.834-1.374-.827z" id="w"/></defs><g transform="translate(-1061 -444)" fill="none" fill-rule="evenodd"><mask id="b" fill="#fff"><use xlink:href="#a"/></mask><g mask="url(#b)"><path fill="#ECEEF1" d="M502 324h1098v577H502z"/><g transform="translate(1061 444)"><mask id="d" fill="#fff"><use xlink:href="#c"/></mask><path fill="#FFF" mask="url(#d)" d="M-4.839 266.301h251.613V-4.839H-4.84z"/></g><g transform="translate(1061 444)"><mask id="f" fill="#fff"><use xlink:href="#e"/></mask><path fill="#D4D7DC" mask="url(#f)" d="M-4.839 266.956h251.613V-4.85H-4.839z"/></g><g transform="translate(1083.58 531.097)"><mask id="h" fill="#fff"><use xlink:href="#g"/></mask><path fill="#393A3D" mask="url(#h)" d="M-3.898 44.776h206.445V-4.675H-3.898z"/></g><g transform="translate(1281.968 556.903)"><mask id="j" fill="#fff"><use xlink:href="#i"/></mask><path fill="#393A3D" mask="url(#j)" d="M-4.55 9.519h15.48V-4.505H-4.55z"/></g><g transform="translate(1161 477.871)"><mask id="l" fill="#fff"><use xlink:href="#k"/></mask><path fill="#2CA01C" mask="url(#l)" d="M-4.464 49.325h52.738V-4.348H-4.464z"/></g><g transform="translate(1165.839 485.935)"><mask id="n" fill="#fff"><use xlink:href="#m"/></mask><path fill="#FFF" mask="url(#n)" d="M-4.335 35.029h41.193V-4.574H-4.335z"/></g><g transform="translate(1086.806 524.645)"><mask id="p" fill="#fff"><use xlink:href="#o"/></mask><path fill="#393A3D" mask="url(#p)" d="M-4.138 15.659h44.247V-4.097H-4.138z"/></g><g transform="translate(1128.742 594)"><mask id="r" fill="#fff"><use xlink:href="#q"/></mask><path fill="#393A3D" mask="url(#r)" d="M-4.11 48.215h114.545V-4.378H-4.11z"/></g><g transform="translate(1180.355 640.774)"><mask id="t" fill="#fff"><use xlink:href="#s"/></mask><path fill="#53B700" mask="url(#t)" d="M-4.065 122.499h131.51V-4.865H-4.065z"/></g><g transform="translate(1180.355 708.516)"><mask id="v" fill="#fff"><use xlink:href="#u"/></mask><path fill="#379D00" mask="url(#v)" d="M-3.839 57.637h50.273v-61.59H-3.84z"/></g><g transform="translate(1061 640.774)"><mask id="x" fill="#fff"><use xlink:href="#w"/></mask><path fill="#7FD000" mask="url(#x)" d="M-4.849 129.044H167.48V-4.813H-4.85z"/></g></g></g></svg>